<?xml version="1.0" encoding="UTF-8"?>
<svg id="Capa_1" data-name="Capa 1" xmlns="http://www.w3.org/2000/svg" viewBox="0 0 46.3 39.38">
  <defs>
    <style>
      .cls-1 {
        fill: #294560;
      }
    </style>
  </defs>
  <g id="hXkoAm">
    <g>
      <path class="cls-1" d="M23.83,16.47c2.33-.11,4.4,1.51,4.9,3.77.79.05,1.79-.22,1.99.82v7.02c-.07.44-.46.78-.9.81-.14,0-.26-.03-.38-.03-1.36-.02-3.09-.03-4.35.52-.5.22-.76.62-1.38.4-.17-.06-.3-.19-.45-.28-1.45-.77-3.47-.64-5.07-.62-.42-.07-.78-.4-.82-.83v-7.04c.26-.99,1.23-.7,1.99-.76.45-2.1,2.3-3.66,4.45-3.77ZM28.83,22.15c-1.15.08-2.43.14-3.51.59-.34.14-.76.49-1.09.52-.54.05-.79-.29-1.25-.49-1.12-.49-2.49-.53-3.7-.62v4.77c1.63.01,3.29.14,4.79.82,1.48-.7,3.15-.81,4.76-.82v-4.77Z"/>
      <path class="cls-1" d="M23.76,9.8c2.34-.21,3.94,2.27,2.76,4.31-1.02,1.77-3.59,1.88-4.79.23-1.29-1.78-.15-4.34,2.03-4.54Z"/>
    </g>
  </g>
</svg>