<?xml version="1.0" encoding="UTF-8"?>
<svg id="Capa_1" data-name="Capa 1" xmlns="http://www.w3.org/2000/svg" viewBox="0 0 46.3 39.38">
  <defs>
    <style>
      .cls-1 {
        fill: #294560;
      }
    </style>
  </defs>
  <g id="sRnIFy">
    <g>
      <path class="cls-1" d="M17.23,10.94c.53.25.55.84.55,1.37h3.35c-.03-.58-.04-1.09.55-1.37h.55c.6.29.58.77.55,1.37h3.41c-.03-.6-.05-1.08.55-1.37h.48c.58.27.65.77.61,1.37h1.33c.07,0,.55.18.65.24.71.35.9.96,1.09,1.68v12.63c-.2,1.07-.99,1.77-2.08,1.85h-13.93c-1.02-.16-1.63-.89-1.89-1.85v-12.7c.07-.76,1.03-1.84,1.81-1.84h1.33c-.03-.6-.05-1.08.55-1.37h.55ZM14.71,14.32c-.1.46.07,1.24,0,1.74h14.55v-1.74s-.14-.28-.15-.29c-.18-.18-1-.04-1.28-.09.18,1.63-1.84,1.63-1.64,0h-3.41c.26,1.68-1.86,1.62-1.64,0h-3.35c.22,1.63-1.89,1.67-1.64,0-.42.04-1.31-.19-1.43.38ZM29.25,17.7h-14.55c-.01,2.74.02,5.49,0,8.23,0,.16-.08.31-.07.47,0,.53.24.61.72.65,3.6.3,7.63-.23,11.27,0,.6.06,1.73.11,2.29-.1.14-.06.34-.27.34-.41v-8.84Z"/>
      <path class="cls-1" d="M25.75,19.28c.74-.14,1.28.77.8,1.35-.54.66-1.6.17-1.46-.71.04-.27.4-.59.66-.64Z"/>
      <path class="cls-1" d="M21.72,19.35c1.3-.24,1.38,1.49.31,1.61-1,.11-1.27-1.44-.31-1.61Z"/>
      <path class="cls-1" d="M21.35,22.91c.11-.1.54-.23.69-.22.85.04,1.12,1.67-.13,1.64-.76-.02-1.06-.97-.56-1.42Z"/>
      <path class="cls-1" d="M17.9,19.35c1.13-.15,1.26,1.83-.08,1.62-.9-.14-.88-1.49.08-1.62Z"/>
      <path class="cls-1" d="M25.88,22.71c1.12-.03,1.19,1.84-.21,1.61-.8-.13-.8-1.58.21-1.61Z"/>
      <path class="cls-1" d="M17.89,22.71c1.16-.08,1.27,1.73,0,1.62-1.02-.09-.89-1.56,0-1.62Z"/>
    </g>
  </g>
</svg>