<?xml version="1.0" encoding="UTF-8"?>
<svg id="Capa_1" data-name="Capa 1" xmlns="http://www.w3.org/2000/svg" viewBox="0 0 46.3 39.38">
  <defs>
    <style>
      .cls-1 {
        fill: #294560;
      }
    </style>
  </defs>
  <g id="_7ugOWq.tif" data-name="7ugOWq.tif">
    <path class="cls-1" d="M32.14,12.09c.07.07.19.04.28.06.81.2,1.28,1.14.93,1.9l-6.9,11.26c-.56.79-1.26.82-2.07.4-.93-.49-1.83-1.16-2.77-1.65l-3.56,2.77c-.45.24-.76-.09-.78-.54l-.02-4.85-3.84-2.32c-.31-.25-.46-.52-.57-.9.01-.14-.02-.31,0-.44.07-.52.58-1.04,1.09-1.15l17.96-4.53h.24ZM20.74,21.55l4.43,2.64,6.32-10.29-16.51,4.17-.04.06,3.32,1.93,6.81-2.62c.21-.01.29.15.14.3l-4.47,3.81Z"/>
  </g>
</svg>