<?xml version="1.0" encoding="UTF-8"?>
<svg id="Capa_1" data-name="Capa 1" xmlns="http://www.w3.org/2000/svg" viewBox="0 0 46.3 39.38">
  <defs>
    <style>
      .cls-1 {
        fill: #294560;
      }
    </style>
  </defs>
  <g id="dadhHS">
    <g>
      <path class="cls-1" d="M25.95,17.18h1.83c.07,0,.39.19.45.25.31.3.34.78.11,1.13l-5.1,6.77c-.35.44-.98.49-1.37.08l-5.22-6.93c-.3-.44.13-1.31.64-1.31h1.79v-5.88s.08-.29.1-.33c.13-.3.43-.48.75-.51,1.67-.15,3.57.11,5.27,0,.24.02.52.21.65.41.02.03.12.29.12.31v6ZM25.7,18.98c-.2,0-.39,0-.59,0-.18,0-.46-.1-.61-.22-.1-.08-.32-.36-.32-.47v-6.02l-.06-.06h-3.24v5.96c0,.3-.42.74-.73.76l-.88.06,3.24,4.31,3.28-4.3c-.06-.1-.08-.02-.1-.02Z"/>
      <path class="cls-1" d="M28.19,26.26v-4.62c0-.19.78-.29.92-.3.28-.02,1.68-.03,1.78.26v6.13c-.06.14,0,.37-.05.49-.04.09-.32.29-.42.32l-15.85.03c-.47-.04-.68-.37-.73-.81v-6.2c.04-.12.13-.16.24-.2.38-.15,1.86-.15,2.24,0,.09.04.17.08.24.16v4.68l.06.06h11.58Z"/>
    </g>
  </g>
</svg>