<?xml version="1.0" encoding="UTF-8"?>
<svg id="Capa_1" data-name="Capa 1" xmlns="http://www.w3.org/2000/svg" viewBox="0 0 46.3 39.38">
  <defs>
    <style>
      .cls-1 {
        fill: #294560;
        stroke: #294560;
        stroke-miterlimit: 10;
        stroke-width: .25px;
      }
    </style>
  </defs>
  <g id="_6VKtqO.tif" data-name="6VKtqO.tif">
    <path class="cls-1" d="M13.36,16.39c.09-.75.96-1.68,1.74-1.68h4.49v-1.74s.12-.31.14-.36c.24-.51.74-.8,1.29-.85,1.37.08,2.85-.1,4.21,0,.58.04,1.08.32,1.33.85.02.05.14.34.14.36v1.74h4.49c.79,0,1.72.99,1.74,1.78v9.63c-.09.92-.81,1.67-1.74,1.78H15.06c-.82-.08-1.6-.87-1.7-1.68v-9.82ZM25.56,14.71v-1.51c0-.14-.26-.3-.4-.29-1.28.07-2.67-.09-3.94,0-.11,0-.25.02-.34.08-.03.02-.14.18-.14.21v1.51h4.82ZM14.51,16.64c-.06.54.05,1.19,0,1.74h17.28v-1.74s-.07-.28-.09-.33c-.13-.31-.48-.44-.8-.46h-15.45c-.5,0-.87.27-.94.78ZM19.9,19.56h-5.39v6.4s.05.24.07.28c.11.3.4.5.71.51h15.68c.33,0,.64-.2.75-.51.01-.04.07-.25.07-.28v-6.4h-5.39v.55c0,.76-.59,1.57-1.27,1.86-.63.27-2.44.23-3.18.19-1.05-.07-2.04-.95-2.04-2.05v-.55ZM25.22,19.56h-4.13v.67s.09.24.11.28c.11.21.36.39.58.45.38.1,2.38.1,2.76,0,.22-.06.46-.23.57-.43.02-.04.12-.28.12-.3v-.67Z"/>
  </g>
</svg>