<?xml version="1.0" encoding="UTF-8"?>
<svg id="Capa_1" data-name="Capa 1" xmlns="http://www.w3.org/2000/svg" viewBox="0 0 46.3 39.38">
  <defs>
    <style>
      .cls-1 {
        fill: #294560;
        stroke: #294560;
        stroke-miterlimit: 10;
        stroke-width: .25px;
      }
    </style>
  </defs>
  <g id="_1vF5VD.tif" data-name="1vF5VD.tif">
    <g>
      <path class="cls-1" d="M29.45,27.12h1.19s.18.08.21.1c.46.3.33,1-.19,1.14l-16.9.02c-.47-.05-.74-.57-.47-.98.06-.09.29-.28.39-.28h1.19c0-.09-.04-.17-.04-.25-.08-2.31.02-4.66.05-6.96.04-.44.71-1.13,1.15-1.13h3.82v-6.13c0-.64.63-1.33,1.27-1.39h7.09c.76.11,1.25.75,1.27,1.51-.11,4.68.14,9.38,0,14.06,0,.1-.03.19-.04.29ZM21.25,12.52l-.12.11-.02,14.16.12.31h6.89s.1-.14.1-.14v-14.33s-.1-.1-.1-.1h-6.86ZM16.24,20.04l-.15.21.03,6.75.18.13c1.06-.08,2.25.09,3.29,0,.09,0,.17,0,.23-.08v-6.93s-.16-.08-.16-.08h-3.44Z"/>
      <path class="cls-1" d="M23.84,15.42c.35-.04,1.58-.05,1.89.05.57.19.51,1.1-.1,1.19-.27.04-1.78.04-2.01-.02-.59-.17-.57-1.12.22-1.22Z"/>
      <path class="cls-1" d="M23.84,19.18c.35-.04,1.58-.05,1.89.05.57.19.51,1.1-.1,1.19-.27.04-1.78.04-2.01-.02-.59-.17-.57-1.12.22-1.22Z"/>
      <path class="cls-1" d="M23.84,22.94c.35-.04,1.58-.05,1.89.05.57.19.51,1.1-.1,1.19-.27.04-1.78.04-2.01-.02-.59-.17-.57-1.12.22-1.22Z"/>
      <path class="cls-1" d="M17.18,22.94c.37-.04,1.56-.06,1.88.06.56.2.47,1.09-.09,1.18-.25.04-1.8.04-2.02-.02-.6-.16-.61-1.13.23-1.22Z"/>
    </g>
  </g>
</svg>