<?xml version="1.0" encoding="UTF-8"?>
<svg id="Capa_1" data-name="Capa 1" xmlns="http://www.w3.org/2000/svg" viewBox="0 0 46.3 39.38">
  <defs>
    <style>
      .cls-1 {
        fill: #30d8d8;
      }
    </style>
  </defs>
  <g id="_4IVf93.tif" data-name="4IVf93.tif">
    <g>
      <path class="cls-1" d="M32.24,19.86v.19l-.11.16-4.53,4.53c-.19.15-.3.22-.52.06-.15-.11-1.03-.98-1.13-1.13-.1-.14-.11-.28,0-.42l2.09-2.1h-9.02c-.16,0-.3-.19-.31-.34-.05-.56.04-1.21,0-1.78,0-.12.22-.28.31-.28h8.98l-1.99-2.01c-.14-.18-.21-.32-.07-.52.12-.16.95-.99,1.12-1.12.2-.14.36-.12.54.05l4.53,4.53.11.16Z"/>
      <path class="cls-1" d="M22.98,26.01c.14.02.26.11.31.24.06.21.06,1.11.03,1.35-.02.16-.1.31-.27.35l-7.17-.02c-.13-.08-.21-.19-.2-.35l.02-15.36c.03-.13.16-.25.29-.26h7.07c.17.04.24.19.27.35.03.24.04,1.14-.03,1.35-.03.1-.17.24-.27.24h-5.4v12.11h5.37Z"/>
    </g>
  </g>
</svg>