<?xml version="1.0" encoding="UTF-8"?>
<svg id="Capa_1" data-name="Capa 1" xmlns="http://www.w3.org/2000/svg" viewBox="0 0 46.3 39.38">
  <defs>
    <style>
      .cls-1 {
        fill: #294560;
      }
    </style>
  </defs>
  <g id="fPlDun">
    <g>
      <path class="cls-1" d="M21.84,12.71l-1.72,1.66c-6.1-.45-8.31,8.13-2.58,10.43,5.17,2.07,9.59-3.84,6.36-8.28.02-.25,1.66-1.05,1.9-.9,3.71,5.9-1.52,13.25-8.35,11.3-2.3-.66-4.28-2.62-4.97-4.92-1.74-5.77,3.63-11.06,9.35-9.3Z"/>
      <path class="cls-1" d="M24.42,26.9c-.06-.08,1.02-.86,1.13-.96.19-.17.48-.65.59-.7.29-.14.95-.02,1.33-.06,5.24-.67,6.32-8.2,1.39-10.29-5.18-2.2-9.73,3.71-6.52,8.21-.02.25-1.39.92-1.65.91-.63-.03-1.37-2.7-1.43-3.29-.75-7.45,8.57-11.34,13.21-5.58s-1.1,13.98-8.06,11.77Z"/>
    </g>
  </g>
</svg>