<?xml version="1.0" encoding="UTF-8"?>
<svg id="Capa_1" data-name="Capa 1" xmlns="http://www.w3.org/2000/svg" viewBox="0 0 46.3 39.38">
  <defs>
    <style>
      .cls-1 {
        fill: #294560;
        stroke: #294560;
        stroke-miterlimit: 10;
        stroke-width: .25px;
      }
    </style>
  </defs>
  <g id="LYmV6E.tif">
    <g>
      <path class="cls-1" d="M29.92,12.57c.42.5-.02.89-.07,1.42-.1,1.09.6,2.04,1.69,2.21.3.05.6-.04.83.25.27.33.52,1.97.55,2.44.04.69,0,1.94-.19,2.6s-.79.44-1.28.51c-1.26.17-1.96,1.67-1.45,2.8.24.54.75.73.24,1.38-.71.9-2.78,2.11-3.89,2.42s-.88-.33-1.33-.94c-.79-1.08-2.39-1.09-3.2-.02-.39.51-.27,1.15-1.15,1.01-.78-.12-2.18-.93-2.83-1.4-.32-.23-1.23-.94-1.39-1.26-.26-.54.18-.77.37-1.19.51-1.13-.2-2.63-1.45-2.8-.49-.07-1.08.14-1.28-.51s-.22-1.87-.19-2.55c.02-.48.27-2.14.55-2.48.24-.29.53-.2.83-.25,1.09-.17,1.79-1.12,1.69-2.21-.05-.53-.49-.92-.07-1.42.4-.47,1.51-1.18,2.07-1.47.43-.22,1.6-.76,2.05-.77.54-.01.61.49.91.81.76.82,2.12.84,2.9.04.44-.45.36-.97,1.18-.81,1.03.2,3.2,1.39,3.88,2.19ZM31.55,20.64c.08-1.04.09-2.1-.19-3.11-.29-.11-.56-.15-.85-.27-1.34-.57-2.11-1.95-1.99-3.4.01-.17.15-.55.09-.67-.05-.08-.5-.39-.61-.47-.59-.4-1.24-.7-1.9-.95-1.36,1.75-3.99,1.75-5.35,0-.91.34-1.84.79-2.54,1.47.45,1.61-.32,3.36-1.87,4.01-.28.12-.57.16-.85.27-.27,1.01-.27,2.07-.19,3.11,2.41.2,3.76,2.82,2.63,4.94.45.43.97.8,1.51,1.1.17.09.88.47,1.02.48.05,0,.09,0,.12-.04,1.3-2.18,4.44-2.12,5.73.04.12.04,1.06-.44,1.23-.54.19-.11,1.37-.91,1.39-1.05-1.16-2.1.24-4.72,2.62-4.92Z"/>
      <path class="cls-1" d="M23.29,15.76c3.02-.1,4.93,3.24,3.3,5.79-1.46,2.3-4.88,2.29-6.34,0-1.56-2.44.14-5.7,3.04-5.79ZM21.7,21.25c2.28,2.28,5.73-1.21,3.45-3.47-2.27-2.24-5.72,1.2-3.45,3.47Z"/>
    </g>
  </g>
</svg>