<?xml version="1.0" encoding="UTF-8"?>
<svg id="Capa_1" data-name="Capa 1" xmlns="http://www.w3.org/2000/svg" viewBox="0 0 46.3 39.38">
  <defs>
    <style>
      .cls-1 {
        fill: #294560;
      }
    </style>
  </defs>
  <g id="_1mFqZ4" data-name="1mFqZ4">
    <g>
      <path class="cls-1" d="M23.13,14.67c.13,0,.31.06.43.12,1.96,1.33,4.06,2.46,6.02,3.8.41.28.69.39.74.99-.16,2.58.21,5.46,0,8-.04.51-.33.83-.8.87-.81.08-2.39.08-3.2,0-.4-.04-.74-.32-.79-.77-.16-1.28.29-2.77-.34-3.97-.89-1.69-3.19-1.68-4.08,0-.63,1.19-.18,2.69-.34,3.97-.06.45-.39.73-.79.77-.78.08-2.48.09-3.25,0-.42-.05-.73-.41-.75-.87.14-2.59-.18-5.38,0-7.95.06-.84.77-1.06,1.36-1.44,1.77-1.16,3.6-2.21,5.37-3.38.11-.05.31-.13.43-.14ZM28.72,26.7v-6.62l-5.55-3.52-5.6,3.52v6.62h1.6v-2.06c0-.29.21-1,.32-1.29,1.22-3.23,5.36-3.57,7.03-.59.24.43.6,1.39.6,1.88v2.06h1.6Z"/>
      <path class="cls-1" d="M22.98,11.14c.33-.07.55.1.82.26,2.79,1.56,5.48,3.62,8.27,5.22.81.68.09,1.94-.83,1.47l-8.11-5.1-8.07,5.1c-.91.49-1.65-.81-.83-1.47,2.79-1.62,5.48-3.64,8.27-5.22.12-.07.37-.23.48-.26Z"/>
    </g>
  </g>
</svg>