<?xml version="1.0" encoding="UTF-8"?>
<svg id="Capa_1" data-name="Capa 1" xmlns="http://www.w3.org/2000/svg" viewBox="0 0 46.3 39.38">
  <defs>
    <style>
      .cls-1 {
        fill: #294560;
      }
    </style>
  </defs>
  <g id="_3lYey4.tif" data-name="3lYey4.tif">
    <g>
      <path class="cls-1" d="M24.39,9.3c.54.07,1.08.51,1.3,1,.58.02,1.23-.09,1.77.18.37.19.56.48.78.81.62.05,1.29-.04,1.91,0,.95.07,1.62.68,1.7,1.65v15.14c-.05.87-.72,1.53-1.58,1.61h-12.15c-.86-.03-1.56-.67-1.65-1.53.04-5.2-.08-10.41.06-15.59.46-1.65,2.22-1.22,3.54-1.28.22-.33.41-.63.78-.81.54-.27,1.18-.15,1.77-.18.22-.49.76-.93,1.3-1,.11-.01.37-.01.48,0ZM24.06,10.66c-.34.07-.14.71-.63.93-.38.17-1.38,0-1.85.06-.11.01-.2.04-.24.16-.04.13-.04,1.09-.02,1.26.02.19.17.24.34.26,1.58.15,3.38-.11,4.98,0,.16,0,.32-.09.34-.26.03-.23.03-.92,0-1.16-.02-.18-.08-.24-.26-.26-.49-.06-1.42.11-1.82-.05-.57-.21-.27-1.06-.84-.94ZM19.97,12.64c-.56.05-1.26-.07-1.81,0-.15.02-.29.11-.34.26v15.1c0,.13.05.25.17.31h12.3s.18-.17.18-.17l.02-15.24c-.05-.15-.19-.24-.34-.26-.55-.08-1.25.05-1.81,0v.58c0,.89-.95,1.41-1.73,1.46-1.43.09-3.43.08-4.86,0-.43-.02-.8-.09-1.15-.36-.28-.22-.62-.74-.62-1.09v-.58Z"/>
      <path class="cls-1" d="M23.57,20.86c2.32-2.32,6.3-.67,6.3,2.6,0,2.86-3.13,4.63-5.59,3.14-2.01-1.22-2.38-4.07-.71-5.74ZM28.42,22.8c-.44-1.41-1.89-2.04-3.25-1.44-.04.02-.07-.02-.06.06l1.37,1.37h1.93ZM28.42,24.12h-2.41c-.05,0-.24-.14-.3-.18-.55-.44-1.03-1.13-1.59-1.57-1.36,3.12,3.16,4.94,4.3,1.75Z"/>
      <path class="cls-1" d="M19.17,15.76c1.55-.18,3.38.1,4.96,0,.82.05.97,1.12.16,1.35h-5.29c-.79-.27-.7-1.24.17-1.34Z"/>
      <path class="cls-1" d="M19.05,19.78c.97.09,2.28-.16,3.21,0,.76.13.75,1.2,0,1.34h-3.25c-.73-.22-.71-1.18.04-1.34Z"/>
      <path class="cls-1" d="M18.67,17.96c.08-.08.25-.16.36-.17,1,.1,2.25-.13,3.22,0,.73.1.81,1.25-.12,1.35-.69.07-2.28.07-2.98,0-.63-.07-.95-.74-.49-1.18Z"/>
    </g>
  </g>
</svg>