<?xml version="1.0" encoding="UTF-8"?>
<svg id="Capa_1" data-name="Capa 1" xmlns="http://www.w3.org/2000/svg" viewBox="0 0 46.3 39.38">
  <defs>
    <style>
      .cls-1 {
        fill: #294560;
        stroke: #294560;
        stroke-miterlimit: 10;
        stroke-width: .25px;
      }
    </style>
  </defs>
  <g id="Op1396">
    <g>
      <path class="cls-1" d="M23.7,10.01c.1.03.22.03.33.04.75.12,1.52.51,1.95,1.14h1.6l.03.03v1.17h2c1.1.11,1.99.98,2.12,2.08.03,4.14.04,8.28,0,12.42-.12.95-.81,1.75-1.73,2l-.45.08h-12.19c-1.11-.09-2.04-.95-2.18-2.06-.04-4.14-.03-8.3,0-12.44.11-.92.78-1.73,1.67-1.99.76-.22,1.64,0,2.41-.09.03,0,.05,0,.07-.03v-1.17h1.6c.46-.62,1.2-1.01,1.96-1.14.1-.02.24-.04.33-.04h.5ZM25.09,12.39c-.05-.92-1.14-1.28-1.92-1.18-.63.08-1.35.47-1.37,1.18h-1.32v2.36h5.92v-2.36h-1.32ZM19.31,13.57h-1.94c-.43,0-.98.55-1.01.98-.04,4.08-.04,8.16,0,12.24.09.55.55.95,1.11,1,4.05-.02,8.11.04,12.16-.03.47-.1.83-.48.92-.95.04-4.09.05-8.2,0-12.29-.04-.41-.58-.95-.99-.95h-1.96s.02.02.02.03v2.33h-8.3v-2.36Z"/>
      <path class="cls-1" d="M19.23,24.24h8.41c.75.09.74,1.13-.04,1.19h-8.3c-.75-.06-.8-1.05-.07-1.19Z"/>
      <path class="cls-1" d="M19.23,21.28h8.43c.76.11.69,1.16-.08,1.19h-8.24c-.77-.02-.86-1.05-.11-1.19Z"/>
      <path class="cls-1" d="M19.19,18.31h8.49c.68.1.69,1.07,0,1.18h-8.46c-.66-.11-.69-1.03-.03-1.18Z"/>
    </g>
  </g>
</svg>