<?xml version="1.0" encoding="UTF-8"?>
<svg id="Capa_1" data-name="Capa 1" xmlns="http://www.w3.org/2000/svg" viewBox="0 0 46.3 39.38">
  <defs>
    <style>
      .cls-1 {
        fill: #30d8d8;
      }
    </style>
  </defs>
  <path class="cls-1" d="M28.08,20.16c-.29,1.64-2.72,2.13-4.12,2.06-1.25-.06-3.31-.58-3.49-2.05-3.32.2-5.94,3.28-5.71,6.6.2,2.75,2.56,2.86,4.78,2.89,0,0,0,0,0,0h9.43s0,0,0,0c2.26-.02,4.62-.16,4.78-2.95.19-3.3-2.38-6.31-5.67-6.55Z"/>
  <path class="cls-1" d="M26.1,20.38c2.12-1.35,3.74-5.07,3.32-7.53-.42-2.49-2.66-4.35-5.18-4.34-2.5.01-4.72,1.87-5.14,4.34-.57,3.39,2.94,10.13,7,7.53ZM19.85,13.74c.19-.86.65-1.69,1.25-2.33.72,1.56,2.95,1.61,4.45,1.53.9-.05,2.25-.6,2.85.27,1.03,1.5-.56,4.52-1.65,5.68-2.54,2.71-5.16.59-6.36-2.12-.43-.96-.77-1.97-.54-3.02Z"/>
</svg>