<?xml version="1.0" encoding="UTF-8"?>
<svg id="Capa_1" data-name="Capa 1" xmlns="http://www.w3.org/2000/svg" viewBox="0 0 206.06 86.93">
  <defs>
    <style>
      .cls-1 {
        fill: #fff;
      }

      .cls-2 {
        opacity: .5;
      }
    </style>
  </defs>
  <g class="cls-2">
    <g>
      <path class="cls-1" d="M5.83,74.89v4.45h-1.5v-11.38h4.2c1.24,0,2.22.32,2.93.95.71.64,1.06,1.48,1.06,2.52,0,1.1-.35,1.95-1.04,2.55-.69.6-1.68.89-2.96.89h-2.68ZM5.83,73.66h2.7c.8,0,1.42-.19,1.84-.57.43-.38.64-.92.64-1.64s-.21-1.22-.64-1.63c-.43-.41-1.01-.62-1.76-.63h-2.78v4.47Z"/>
      <path class="cls-1" d="M13.71,75.04c0-.83.16-1.57.49-2.23.33-.66.78-1.17,1.36-1.53.58-.36,1.24-.54,1.99-.54,1.15,0,2.08.4,2.79,1.2s1.07,1.86,1.07,3.18v.1c0,.82-.16,1.56-.47,2.21-.32.65-.77,1.16-1.35,1.53s-1.26.55-2.02.55c-1.15,0-2.07-.4-2.79-1.2s-1.07-1.85-1.07-3.16v-.1ZM15.16,75.21c0,.94.22,1.69.65,2.26.43.57,1.02.85,1.75.85s1.32-.29,1.75-.86c.43-.58.65-1.38.65-2.42,0-.93-.22-1.68-.66-2.25-.44-.58-1.02-.86-1.75-.86s-1.29.28-1.73.85-.66,1.38-.66,2.44Z"/>
      <path class="cls-1" d="M30.7,77.35l1.62-6.46h1.45l-2.46,8.45h-1.17l-2.05-6.41-2,6.41h-1.17l-2.45-8.45h1.44l1.66,6.33,1.97-6.33h1.16l2.01,6.46Z"/>
      <path class="cls-1" d="M38.75,79.5c-1.15,0-2.08-.38-2.8-1.13s-1.08-1.76-1.08-3.02v-.27c0-.84.16-1.59.48-2.25s.77-1.17,1.34-1.55c.58-.37,1.2-.56,1.87-.56,1.1,0,1.95.36,2.56,1.09s.91,1.76.91,3.11v.6h-5.73c.02.83.26,1.51.73,2.02.47.51,1.06.77,1.78.77.51,0,.94-.1,1.3-.31.35-.21.66-.48.93-.83l.88.69c-.71,1.09-1.77,1.63-3.19,1.63ZM38.57,71.92c-.58,0-1.07.21-1.47.64-.4.42-.64,1.02-.73,1.79h4.23v-.11c-.04-.73-.24-1.3-.59-1.71-.35-.4-.83-.61-1.44-.61Z"/>
      <path class="cls-1" d="M47.8,72.19c-.22-.04-.46-.05-.71-.05-.95,0-1.59.4-1.93,1.21v6h-1.45v-8.45h1.41l.02.98c.47-.75,1.15-1.13,2.02-1.13.28,0,.49.04.64.11v1.34Z"/>
      <path class="cls-1" d="M52.64,79.5c-1.15,0-2.08-.38-2.8-1.13s-1.08-1.76-1.08-3.02v-.27c0-.84.16-1.59.48-2.25s.77-1.17,1.34-1.55c.58-.37,1.2-.56,1.87-.56,1.1,0,1.95.36,2.56,1.09s.91,1.76.91,3.11v.6h-5.73c.02.83.26,1.51.73,2.02.47.51,1.06.77,1.78.77.51,0,.94-.1,1.3-.31.35-.21.66-.48.93-.83l.88.69c-.71,1.09-1.77,1.63-3.19,1.63ZM52.46,71.92c-.58,0-1.07.21-1.47.64-.4.42-.64,1.02-.73,1.79h4.23v-.11c-.04-.73-.24-1.3-.59-1.71-.35-.4-.83-.61-1.44-.61Z"/>
      <path class="cls-1" d="M57.26,75.05c0-1.3.31-2.34.92-3.13.61-.79,1.42-1.18,2.41-1.18s1.77.34,2.35,1.02v-4.41h1.45v12h-1.33l-.07-.91c-.58.71-1.38,1.06-2.41,1.06s-1.78-.4-2.39-1.2-.93-1.85-.93-3.14v-.11ZM58.7,75.21c0,.96.2,1.71.59,2.25.4.54.94.81,1.64.81.92,0,1.59-.41,2.01-1.23v-3.88c-.43-.8-1.1-1.2-1.99-1.2-.71,0-1.26.27-1.66.82-.4.55-.59,1.36-.59,2.43Z"/>
      <path class="cls-1" d="M77.75,75.21c0,1.29-.3,2.33-.89,3.11s-1.39,1.18-2.39,1.18c-1.07,0-1.89-.38-2.48-1.13l-.07.98h-1.33v-12h1.45v4.48c.58-.72,1.39-1.09,2.41-1.09s1.83.39,2.42,1.16.88,1.84.88,3.19v.12ZM76.3,75.05c0-.98-.19-1.75-.57-2.28-.38-.54-.93-.8-1.64-.8-.95,0-1.64.44-2.05,1.33v3.66c.44.89,1.13,1.33,2.07,1.33.69,0,1.23-.27,1.62-.8.39-.54.58-1.34.58-2.42Z"/>
      <path class="cls-1" d="M82.33,77.23l1.97-6.34h1.55l-3.4,9.76c-.53,1.41-1.36,2.11-2.51,2.11l-.27-.02-.54-.1v-1.17l.39.03c.49,0,.87-.1,1.14-.3.27-.2.5-.56.68-1.09l.32-.86-3.02-8.36h1.58l2.11,6.34Z"/>
      <path class="cls-1" d="M97.61,76.37h-4.77l-1.07,2.98h-1.55l4.34-11.38h1.31l4.35,11.38h-1.54l-1.09-2.98ZM93.29,75.14h3.87l-1.94-5.32-1.93,5.32Z"/>
      <path class="cls-1" d="M108.76,77.35l1.62-6.46h1.45l-2.46,8.45h-1.17l-2.05-6.41-2,6.41h-1.17l-2.45-8.45h1.44l1.66,6.33,1.97-6.33h1.16l2.01,6.46Z"/>
      <path class="cls-1" d="M118.52,79.34c-.08-.17-.15-.46-.2-.89-.67.7-1.47,1.05-2.41,1.05-.83,0-1.52-.24-2.05-.71s-.8-1.07-.8-1.79c0-.88.33-1.56,1-2.05s1.61-.73,2.82-.73h1.41v-.66c0-.5-.15-.91-.45-1.21s-.75-.45-1.34-.45c-.52,0-.95.13-1.3.39s-.52.58-.52.95h-1.45c0-.42.15-.83.45-1.22s.71-.7,1.22-.93,1.08-.34,1.69-.34c.97,0,1.74.24,2.29.73s.84,1.16.86,2.01v3.89c0,.78.1,1.39.3,1.85v.12h-1.52ZM116.12,78.24c.45,0,.88-.12,1.29-.35s.7-.54.88-.91v-1.73h-1.13c-1.77,0-2.66.52-2.66,1.55,0,.45.15.81.45,1.06s.69.38,1.16.38Z"/>
      <path class="cls-1" d="M124.36,75.43l-.91.95v2.97h-1.45v-12h1.45v7.26l.77-.93,2.63-2.78h1.76l-3.29,3.53,3.67,4.92h-1.7l-2.95-3.91Z"/>
      <path class="cls-1" d="M133.62,79.5c-1.15,0-2.08-.38-2.8-1.13s-1.08-1.76-1.08-3.02v-.27c0-.84.16-1.59.48-2.25s.77-1.17,1.34-1.55,1.2-.56,1.87-.56c1.1,0,1.95.36,2.56,1.09s.91,1.76.91,3.11v.6h-5.73c.02.83.26,1.51.73,2.02s1.06.77,1.78.77c.51,0,.94-.1,1.3-.31s.66-.48.93-.83l.88.69c-.71,1.09-1.77,1.63-3.19,1.63ZM133.44,71.92c-.58,0-1.07.21-1.47.64s-.64,1.02-.73,1.79h4.23v-.11c-.04-.73-.24-1.3-.59-1.71s-.83-.61-1.44-.61Z"/>
      <path class="cls-1" d="M140.16,79.34h-1.45v-12h1.45v12Z"/>
      <path class="cls-1" d="M147.69,79.34c-.08-.17-.15-.46-.2-.89-.67.7-1.47,1.05-2.41,1.05-.83,0-1.52-.24-2.05-.71s-.8-1.07-.8-1.79c0-.88.33-1.56,1-2.05s1.61-.73,2.82-.73h1.41v-.66c0-.5-.15-.91-.45-1.21s-.75-.45-1.34-.45c-.52,0-.95.13-1.3.39s-.52.58-.52.95h-1.45c0-.42.15-.83.45-1.22s.71-.7,1.22-.93c.51-.23,1.08-.34,1.69-.34.97,0,1.74.24,2.29.73s.84,1.16.86,2.01v3.89c0,.78.1,1.39.3,1.85v.12h-1.52ZM145.29,78.24c.45,0,.88-.12,1.29-.35s.7-.54.88-.91v-1.73h-1.13c-1.77,0-2.66.52-2.66,1.55,0,.45.15.81.45,1.06s.69.38,1.16.38Z"/>
      <path class="cls-1" d="M158.33,75.21c0,1.29-.3,2.33-.89,3.11s-1.39,1.18-2.39,1.18c-1.07,0-1.89-.38-2.48-1.13l-.07.98h-1.33v-12h1.45v4.48c.58-.72,1.39-1.09,2.41-1.09s1.83.39,2.42,1.16.88,1.84.88,3.19v.12ZM156.89,75.05c0-.98-.19-1.75-.57-2.28s-.93-.8-1.64-.8c-.95,0-1.64.44-2.05,1.33v3.66c.44.89,1.13,1.33,2.07,1.33.69,0,1.23-.27,1.62-.8s.58-1.34.58-2.42Z"/>
      <path class="cls-1" d="M160.18,78.59c0-.25.07-.46.22-.62s.37-.25.67-.25.52.08.68.25.23.38.23.62-.08.44-.23.6-.38.24-.68.24-.52-.08-.67-.24-.22-.36-.22-.6Z"/>
      <path class="cls-1" d="M171.85,77.35l1.62-6.46h1.45l-2.46,8.45h-1.17l-2.05-6.41-2,6.41h-1.17l-2.45-8.45h1.44l1.66,6.33,1.97-6.33h1.16l2.01,6.46Z"/>
      <path class="cls-1" d="M176,75.04c0-.83.16-1.57.49-2.23s.78-1.17,1.36-1.53,1.24-.54,1.99-.54c1.15,0,2.08.4,2.79,1.2s1.07,1.86,1.07,3.18v.1c0,.82-.16,1.56-.47,2.21s-.77,1.16-1.35,1.53-1.26.55-2.02.55c-1.15,0-2.07-.4-2.79-1.2s-1.07-1.85-1.07-3.16v-.1ZM177.46,75.21c0,.94.22,1.69.65,2.26s1.02.85,1.75.85,1.32-.29,1.75-.86.65-1.38.65-2.42c0-.93-.22-1.68-.66-2.25s-1.02-.86-1.75-.86-1.29.28-1.73.85-.66,1.38-.66,2.44Z"/>
      <path class="cls-1" d="M189.6,72.19c-.22-.04-.46-.05-.71-.05-.95,0-1.59.4-1.93,1.21v6h-1.45v-8.45h1.41l.02.98c.47-.75,1.15-1.13,2.02-1.13.28,0,.5.04.64.11v1.34Z"/>
      <path class="cls-1" d="M192.5,79.34h-1.45v-12h1.45v12Z"/>
      <path class="cls-1" d="M194.46,75.05c0-1.3.31-2.34.92-3.13s1.42-1.18,2.41-1.18,1.77.34,2.35,1.02v-4.41h1.45v12h-1.33l-.07-.91c-.58.71-1.38,1.06-2.41,1.06s-1.78-.4-2.39-1.2-.93-1.85-.93-3.14v-.11ZM195.9,75.21c0,.96.2,1.71.59,2.25s.94.81,1.64.81c.92,0,1.59-.41,2.01-1.23v-3.88c-.43-.8-1.1-1.2-1.99-1.2-.71,0-1.26.27-1.66.82s-.59,1.36-.59,2.43Z"/>
    </g>
    <g>
      <path class="cls-1" d="M100.89,25.49c-3.6,3.58-7.21,7.46-10.93,10.92-.37.34-.79.65-1.13,1.03-.16.03-.35-.3-.43-.41-1.98-2.79-3.12-6.64-1.6-9.89.77-1.64,2.28-2.76,3.52-4.02,6.64-6.78,13.37-13.48,20.06-20.22,2.86,3.74,3.87,8.89.56,12.71-3.36,3.29-6.72,6.58-10.05,9.89Z"/>
      <path class="cls-1" d="M92.64,38.09c.85-.85,2.25-2.53,3.17-3.16.07-.05.08-.12.22-.09,1.87,4.76,8.16,6.11,11.94,2.67,4.04-3.67,2.94-10.45-2.11-12.5,1.44-1.79,3.3-3.24,4.82-4.96.23-.11.6-.63.82-.65.2-.02,1.28.88,1.5,1.08,7.35,6.49,6.7,18.3-1.35,23.9-6.5,4.52-15.16,3.36-20.32-2.57-.18-.21-1.01-1.25-.99-1.42.03-.27,1.97-1.98,2.3-2.32Z"/>
      <path class="cls-1" d="M117.95,47.2c-6.38,6.11-15.4,7.71-23.6,4.36-1.15-.47-2.65-1.21-3.65-1.95-.21-.16-.61-.39-.61-.68l.47-.72c1.25.86,2.55,1.64,3.95,2.24,11.41,4.85,23.91-.77,28.01-12.34,2.13-6.01.92-13.3-2.72-18.46-.3-.42-1.49-1.65-1.45-2.08.02-.2.32-.59.56-.57.21.02.86.83,1.03,1.05,6.94,8.76,6.06,21.45-1.98,29.15Z"/>
      <path class="cls-1" d="M100.24,10.13c0,.24-.03.8-.21.93-.26.19-1.81.36-2.28.48-1.54.39-3.31,1.17-4.71,1.93-8.21,4.43-12.07,13.18-10.43,22.35.41,2.29,1.33,4.33,2.46,6.34.15.32-.5.59-.76.59-.55-.27-1.77-3.41-2.01-4.12-4.25-12.57,3.38-25.44,16.12-28.3.3-.07,1.68-.41,1.82-.19Z"/>
      <path class="cls-1" d="M102.48,28.41c4.32-.34,4.87,6.48.32,6.7-4.17.2-4.7-6.36-.32-6.7Z"/>
      <path class="cls-1" d="M86.62,43.92c2.28-.37,3.47,2.51,1.6,3.76-1.03.68-2.32.28-2.94-.73-.68-1.09.05-2.82,1.34-3.02Z"/>
      <path class="cls-1" d="M114.76,16.38c-.63-.7-.52-1.85.23-2.43s1.62-.58,2.28.14c1.64,1.81-1.09,3.87-2.5,2.29Z"/>
    </g>
  </g>
</svg>